<?xml version="1.0" encoding="UTF-8" standalone="no"?><!DOCTYPE svg PUBLIC "-//W3C//DTD SVG 1.1//EN" "http://www.w3.org/Graphics/SVG/1.1/DTD/svg11.dtd"><svg width="100%" height="100%" viewBox="0 0 40 40" version="1.1" xmlns="http://www.w3.org/2000/svg" xmlns:xlink="http://www.w3.org/1999/xlink" xml:space="preserve" xmlns:serif="http://www.serif.com/" style="fill-rule:evenodd;clip-rule:evenodd;stroke-linejoin:round;stroke-miterlimit:1.41421;"><g><path d="M17.711,26.688c1.266,1.261 3.312,1.261 4.578,0l10.832,-10.78c0.7,-0.697 0.912,-1.759 0.534,-2.672c-0.377,-0.913 -1.266,-1.52 -2.255,-1.52l-4.522,0l0,-5.922c0,-1.347 -1.105,-2.458 -2.452,-2.458l-8.854,0c-1.348,0 -2.468,1.11 -2.468,2.458l0,5.921l-4.506,0c-0.987,0 -1.877,0.608 -2.254,1.52c-0.377,0.913 -0.166,1.97 0.534,2.666l10.833,10.787Z" style="fill:#fff;fill-rule:nonzero;"/><path d="M36.148,32.217c0,-1.346 -1.092,-2.439 -2.44,-2.439l-27.417,0c-1.347,0 -2.439,1.091 -2.439,2.439l0,2.008c0,1.347 1.092,2.439 2.439,2.439l27.418,0c1.347,0 2.439,-1.092 2.439,-2.439l0,-2.008Z" style="fill:#fff;fill-rule:nonzero;"/></g></svg>